# xmcd CD database file
#
# Track frame offsets:
#	150
#	15824
#	37208
#	50971
#	66550
#	84091
#	97170
#	110863
#	126977
#	143751
#	163640
#	181992
#
# Disc length: 2626 seconds
#
# Revision: 0
# Processed by: cddbd v1.5.2PL0 Copyright (c) Steve Scherf et al.
# Submitted via: CDex 2.13
#
DISCID=ad0a400c
DTITLE=Tatiana Moroz - Love and Liberty
DYEAR=2012
DGENRE=Country
TTITLE0=Let It Go
TTITLE1=News Report
TTITLE2=Heart of Gold
TTITLE3=I Tried to Reach You
TTITLE4=I Don't Know You Anymore
TTITLE5=Leaving Tomorrow
TTITLE6=Rita
TTITLE7=House of the Rising Sun
TTITLE8=Make a YouTube Video
TTITLE9=Masters of War
TTITLE10=Playin the Cards
TTITLE11=Evolution to Revolution
EXTD=YEAR: 2012
EXTT0=
EXTT1=
EXTT2=
EXTT3=
EXTT4=
EXTT5=
EXTT6=
EXTT7=
EXTT8=
EXTT9=
EXTT10=
EXTT11=
PLAYORDER=
